<svg id="Layer_1" data-name="Layer 1" xmlns="http://www.w3.org/2000/svg" xmlns:xlink="http://www.w3.org/1999/xlink" viewBox="0 0 355.37 294.81"><defs><linearGradient id="linear-gradient" x1="145.95" y1="249.15" x2="105.99" y2="371.58" gradientTransform="matrix(1, 0, 0, -1, 0, 352)" gradientUnits="userSpaceOnUse"><stop offset="0.01" stop-color="#fff"/><stop offset="0.13" stop-color="#fff" stop-opacity="0.69"/><stop offset="1" stop-color="#fff" stop-opacity="0"/></linearGradient><linearGradient id="linear-gradient-2" x1="216.14" y1="240.21" x2="141.92" y2="257.98" gradientTransform="matrix(1, 0, 0, -1, 0, 352)" gradientUnits="userSpaceOnUse"><stop offset="0.01"/><stop offset="0.13" stop-opacity="0.69"/><stop offset="1" stop-opacity="0"/></linearGradient><linearGradient id="linear-gradient-3" x1="-741.71" y1="249.14" x2="-781.68" y2="371.57" gradientTransform="translate(-508.81 352) rotate(180)" xlink:href="#linear-gradient"/><linearGradient id="linear-gradient-4" x1="-677.87" y1="236.65" x2="-752.09" y2="254.41" gradientTransform="translate(-515.15 352) rotate(180)" xlink:href="#linear-gradient-2"/><linearGradient id="linear-gradient-5" x1="200.78" y1="194.87" x2="198.25" y2="78.16" xlink:href="#linear-gradient-2"/><linearGradient id="linear-gradient-6" x1="194.35" y1="183.63" x2="183.88" y2="-43.78" xlink:href="#linear-gradient"/><linearGradient id="linear-gradient-7" x1="189.27" y1="28.91" x2="197.97" y2="150.17" xlink:href="#linear-gradient-2"/><linearGradient id="linear-gradient-8" x1="126.85" y1="137.48" x2="126.85" y2="83.35" xlink:href="#linear-gradient"/><linearGradient id="linear-gradient-9" x1="-695.65" y1="137.48" x2="-695.65" y2="83.35" gradientTransform="translate(-428.62 352) rotate(180)" xlink:href="#linear-gradient"/><linearGradient id="linear-gradient-10" x1="174.98" y1="178.51" x2="171.49" y2="189.19" gradientTransform="matrix(1, 0, 0, -1, -14.56, 321.6)" xlink:href="#linear-gradient-2"/><linearGradient id="linear-gradient-11" x1="202.37" y1="178.51" x2="198.88" y2="189.19" gradientTransform="matrix(1, 0, 0, -1, -14.56, 321.6)" xlink:href="#linear-gradient-2"/><linearGradient id="linear-gradient-12" x1="190.35" y1="152.38" x2="208.69" y2="152.38" xlink:href="#linear-gradient-2"/></defs><title>6</title><path d="M176.08,35.26c-20.32,6-38.51,17.42-56.4,28.74L49.21,108.57c-10.11,6.39-20.55,13.1-27,23.16-10.78,16.75-8.14,38.53-4.3,58.07,6,30.42,15.92,63.4,42.2,79.82,15.76,9.85,34.91,12.05,53.1,15.9,32.7,6.94,63.79,19.85,95.92,29.1s66.46,14.79,98.88,6.63c26.72-6.73,52.45-24.89,59.7-51.47,10.09-36.93-17.55-73.92-17.54-112.21,0-18.45,6.47-36.24,9.14-54.5s.61-39.07-13-51.53c-18.72-17.16-49.23-10.21-72.55-13.95C241.05,32.35,208.77,25.67,176.08,35.26Z" transform="translate(-14.56 -30.4)" fill="#6e8deb" opacity="0.18" style="isolation:isolate"/><path d="M145.2,147.28c-16.7-21.53-23.2-49.17-27-76.15-1.65-11.79-2.33-25.36,5.94-33.91a14,14,0,0,1,6.93-4.15c4.79-1,9.78,1.48,13,5.15s5,8.35,6.68,13a391.24,391.24,0,0,1,20.82,91.55,15.13,15.13,0,0,1-.11,5.45C167.84,161.65,150.61,154.25,145.2,147.28Z" transform="translate(-14.56 -30.4)" fill="#6e8deb"/><path d="M145.2,147.28c-16.7-21.53-23.2-49.17-27-76.15-1.65-11.79-2.33-25.36,5.94-33.91a14,14,0,0,1,6.93-4.15c4.79-1,9.78,1.48,13,5.15s5,8.35,6.68,13a391.24,391.24,0,0,1,20.82,91.55,15.13,15.13,0,0,1-.11,5.45C167.84,161.65,150.61,154.25,145.2,147.28Z" transform="translate(-14.56 -30.4)" fill="url(#linear-gradient)"/><path d="M153.25,110.12a352.29,352.29,0,0,1-10.73-48.91c-.86-5.9-1.61-12-4.37-17.25a4.55,4.55,0,0,0-1.83-2.14c-2-1-4.2,1-5.25,2.92a16.89,16.89,0,0,0-1.25,12.66,11.33,11.33,0,0,0-4.67-7.86C112.39,72,142,133.27,144.59,137.87s6.48,8.68,11.47,10.4c2.61.9,5.65,1.08,8-.35,6.94-4.2-.48-12-2.76-16.41A119.38,119.38,0,0,1,153.25,110.12Z" transform="translate(-14.56 -30.4)" fill="#6e8deb"/><path d="M153.25,110.12a352.29,352.29,0,0,1-10.73-48.91c-.86-5.9-1.61-12-4.37-17.25a4.55,4.55,0,0,0-1.83-2.14c-2-1-4.2,1-5.25,2.92a16.89,16.89,0,0,0-1.25,12.66,11.33,11.33,0,0,0-4.67-7.86C112.39,72,142,133.27,144.59,137.87s6.48,8.68,11.47,10.4c2.61.9,5.65,1.08,8-.35,6.94-4.2-.48-12-2.76-16.41A119.38,119.38,0,0,1,153.25,110.12Z" transform="translate(-14.56 -30.4)" fill="url(#linear-gradient-2)"/><path d="M233.65,147.28c16.7-21.53,23.2-49.17,27-76.15,1.65-11.79,2.33-25.36-5.94-33.91a14,14,0,0,0-6.93-4.15c-4.79-1-9.78,1.48-13,5.15s-5,8.35-6.68,13a391.24,391.24,0,0,0-20.82,91.55,15.13,15.13,0,0,0,.11,5.45C211,161.65,228.24,154.25,233.65,147.28Z" transform="translate(-14.56 -30.4)" fill="#6e8deb"/><path d="M233.65,147.28c16.7-21.53,23.2-49.17,27-76.15,1.65-11.79,2.33-25.36-5.94-33.91a14,14,0,0,0-6.93-4.15c-4.79-1-9.78,1.48-13,5.15s-5,8.35-6.68,13a391.24,391.24,0,0,0-20.82,91.55,15.13,15.13,0,0,0,.11,5.45C211,161.65,228.24,154.25,233.65,147.28Z" transform="translate(-14.56 -30.4)" fill="url(#linear-gradient-3)"/><path d="M225.6,113.67a353.74,353.74,0,0,0,10.73-48.91c.86-5.9,1.61-12,4.37-17.26a4.53,4.53,0,0,1,1.83-2.13c2-1,4.2,1,5.25,2.91A16.85,16.85,0,0,1,249,61a11.33,11.33,0,0,1,4.67-7.86c12.76,22.48-16.86,83.73-19.44,88.33s-6.48,8.68-11.47,10.4c-2.61.9-5.65,1.08-8-.35-6.94-4.2.48-12,2.76-16.41A119.69,119.69,0,0,0,225.6,113.67Z" transform="translate(-14.56 -30.4)" fill="#6e8deb"/><path d="M225.6,113.67a353.74,353.74,0,0,0,10.73-48.91c.86-5.9,1.61-12,4.37-17.26a4.53,4.53,0,0,1,1.83-2.13c2-1,4.2,1,5.25,2.91A16.85,16.85,0,0,1,249,61a11.33,11.33,0,0,1,4.67-7.86c12.76,22.48-16.86,83.73-19.44,88.33s-6.48,8.68-11.47,10.4c-2.61.9-5.65,1.08-8-.35-6.94-4.2.48-12,2.76-16.41A119.69,119.69,0,0,0,225.6,113.67Z" transform="translate(-14.56 -30.4)" fill="url(#linear-gradient-4)"/><ellipse cx="184.95" cy="185.15" rx="132.58" ry="18.4" fill="#6e8deb"/><path d="M332.1,215.54c0,8-36.78,14.81-88.15,17.34-10.8.54-22.24.88-34.12,1q-5.1.06-10.31.06c-22.47,0-43.64-.78-62.18-2.15h-.68c-41.52-3.1-69.73-9.2-69.73-16.2,0-6.42,23.73-12.08,59.68-15.36q5.63-.51,11.65-1c2.27-.17,4.58-.32,6.93-.47,16.58-1,35-1.61,54.33-1.61,15.31,0,30,.36,43.72,1l1.83.09q5,.25,9.72.55C300.41,201.72,332.1,208.12,332.1,215.54Z" transform="translate(-14.56 -30.4)" fill="url(#linear-gradient-5)"/><path d="M250.12,199.4c.49,1,.95,2.06,1.35,3.12,3.34,8.93,3,26.06-7.32,30.19-5.49,2.19-14.65.78-20.5.93q-12.06.31-24.13.3c-15.68,0-31.36-.36-47-1.19-6.25-.33-12.67.67-16.93-3.78-4-4.21-4.85-11.65-4.35-17.14.62-6.75,3.08-13.16,4.87-19.7,2.58-9.43,3.8-19.23,7-28.48,10.57-30.77,58.3-43.06,82.37-19.9,11.76,11.33,11.67,30,18.78,44.68C246,192.16,248.32,195.67,250.12,199.4Z" transform="translate(-14.56 -30.4)" fill="#6e8deb"/><path d="M250.12,199.4c.49,1,.95,2.06,1.35,3.12,3.34,8.93,3,26.06-7.32,30.19-5.49,2.19-14.65.78-20.5.93q-12.06.31-24.13.3c-15.68,0-31.36-.36-47-1.19-6.25-.33-12.67.67-16.93-3.78-4-4.21-4.85-11.65-4.35-17.14.62-6.75,3.08-13.16,4.87-19.7,2.58-9.43,3.8-19.23,7-28.48,10.57-30.77,58.3-43.06,82.37-19.9,11.76,11.33,11.67,30,18.78,44.68C246,192.16,248.32,195.67,250.12,199.4Z" transform="translate(-14.56 -30.4)" fill="url(#linear-gradient-6)"/><path d="M260.22,223a2.71,2.71,0,0,1-1.22,1c-9.25,4.69-19.77,6.08-30.06,7.41l-19.11,2.46q-5.1.06-10.31.06c-22.47,0-43.64-.78-62.18-2.15-1-7,1.46-13.36-2-20.56-1.8-3.74-2.38-5.26-.09-8.84a33.16,33.16,0,0,1,3-3.16c2.68-2.63,6.11-5.92,6-6.52a39.34,39.34,0,0,1,1,6,38.34,38.34,0,0,1-.07,6.86,33.51,33.51,0,0,0,8.74-1.93c-.25,3.28-.49,6.66.56,9.78s3.75,5.92,7,6c3,.11,6.8-1.53,8.3,1,.34.58.44,1.26.78,1.85.72,1.27,2.3,1.72,3.73,2,17.91,3.71,36.44.87,54.5-2,.41-3.1.81-6.21,1.21-9.31a12.33,12.33,0,0,0,6.8,4.07c.89-6.72,2.08-14,6.46-19a16.42,16.42,0,0,1,1.62-1.61,10.82,10.82,0,0,0,.21,1.7,32.21,32.21,0,0,0,13.29,21.42C259.52,220.5,260.9,221.81,260.22,223Z" transform="translate(-14.56 -30.4)" fill="url(#linear-gradient-7)"/><path d="M113.08,209.44a31.15,31.15,0,0,0-7.54,4.51c8.47-3.92,17.09-7.89,26.31-9.37a102.47,102.47,0,0,1,11.34-1l8.75-.41a68.86,68.86,0,0,1,8-.08c1.88.13,5,1.35,6.63.7-1.36-2.9-8.59-2.35-11.27-2.48a92.28,92.28,0,0,0-14.68.49A91,91,0,0,0,113.08,209.44Z" transform="translate(-14.56 -30.4)" fill="#6e8deb"/><path d="M112.46,210.07a18.72,18.72,0,0,0-7,25.53c.23.41.48.82.75,1.21a30.34,30.34,0,0,0,6.59,6.65c2.58,2,5.44,4,8.71,4.45s7-1,8.17-4.14c.84,3,4.6,4.44,7.53,3.47s5-3.78,5.83-6.75c-.29,1.72,1.57,3.27,3.31,3.09a4.85,4.85,0,0,0,3.73-3.29,14.13,14.13,0,0,0,.57-5.17l-.15-13.21c0-3-.1-6-1.47-8.67C143.69,203.05,120.57,205.44,112.46,210.07Z" transform="translate(-14.56 -30.4)" fill="#6e8deb"/><path d="M112.46,210.07a18.72,18.72,0,0,0-7,25.53c.23.41.48.82.75,1.21a30.34,30.34,0,0,0,6.59,6.65c2.58,2,5.44,4,8.71,4.45s7-1,8.17-4.14c.84,3,4.6,4.44,7.53,3.47s5-3.78,5.83-6.75c-.29,1.72,1.57,3.27,3.31,3.09a4.85,4.85,0,0,0,3.73-3.29,14.13,14.13,0,0,0,.57-5.17l-.15-13.21c0-3-.1-6-1.47-8.67C143.69,203.05,120.57,205.44,112.46,210.07Z" transform="translate(-14.56 -30.4)" fill="url(#linear-gradient-8)"/><path d="M281.42,210.07a18.72,18.72,0,0,1,7,25.53c-.23.41-.48.82-.75,1.21a30.56,30.56,0,0,1-6.59,6.65c-2.59,2-5.44,4-8.71,4.45s-7-1-8.17-4.14c-.84,3-4.61,4.44-7.54,3.47s-5-3.78-5.83-6.75c.3,1.72-1.57,3.27-3.3,3.09a4.85,4.85,0,0,1-3.73-3.29,14.13,14.13,0,0,1-.58-5.17l.16-13.21c0-3,.1-6,1.47-8.67C250.18,203.05,273.3,205.44,281.42,210.07Z" transform="translate(-14.56 -30.4)" fill="#6e8deb"/><path d="M281.42,210.07a18.72,18.72,0,0,1,7,25.53c-.23.41-.48.82-.75,1.21a30.56,30.56,0,0,1-6.59,6.65c-2.59,2-5.44,4-8.71,4.45s-7-1-8.17-4.14c-.84,3-4.61,4.44-7.54,3.47s-5-3.78-5.83-6.75c.3,1.72-1.57,3.27-3.3,3.09a4.85,4.85,0,0,1-3.73-3.29,14.13,14.13,0,0,1-.58-5.17l.16-13.21c0-3,.1-6,1.47-8.67C250.18,203.05,273.3,205.44,281.42,210.07Z" transform="translate(-14.56 -30.4)" fill="url(#linear-gradient-9)"/><ellipse cx="160.21" cy="142.46" rx="3.46" ry="5.71" fill="url(#linear-gradient-10)"/><ellipse cx="187.6" cy="142.46" rx="3.46" ry="5.71" fill="url(#linear-gradient-11)"/><path d="M198.09,192.72c-1.92-.09-4-.16-5.65.77s-2.75,3.28-1.65,4.86a5.08,5.08,0,0,0,1.1,1.07l7.14,5.65a6.56,6.56,0,0,0,2.44,1.41c2.29.55,4.41-1.44,5.61-3.47a9.53,9.53,0,0,0,1.57-5.73C208,191.89,202,192.92,198.09,192.72Z" transform="translate(-14.56 -30.4)" fill="url(#linear-gradient-12)"/><path d="M189.44,217.58h-.21c-.35.75.63,1.42,1.44,1.61a12.84,12.84,0,0,0,10.74-2.38c4.08,2.6,10.08,2.37,13.07-1.71a8.9,8.9,0,0,0,1.65-6.14,3.16,3.16,0,0,0-.37-1.28,1.32,1.32,0,0,0-1.1-.68,38.17,38.17,0,0,1-.13,4.14,7.14,7.14,0,0,1-.59,2.54,5,5,0,0,1-2.5,2.19c-2,.84-6.67,1.58-8.21-.44-.76-1-.54-2.42-.29-3.65.15-.75,1.72-6,.17-5.1-1.16.7-.89,4.92-1.77,6.36a9.13,9.13,0,0,1-5.41,3.78c-3.76,1.07-8.3,1.46-11-1.83a11.34,11.34,0,0,1-2.19-4.81,1.87,1.87,0,0,0-1.63,1.71,5.1,5.1,0,0,0,.52,2.49c.73,1.85,1.69,3.79,3.45,4.72a8.28,8.28,0,0,0,3,.78c2.7.32,5.68.34,7.86-1.3" transform="translate(-14.56 -30.4)" fill="#6e8deb"/><path d="M114.11,180a31,31,0,0,0-8.63,1.65c9.31-.78,18.76-1.55,27.93.23a104.53,104.53,0,0,1,11,3l8.35,2.62a70,70,0,0,1,7.56,2.68c1.72.76,4.18,3,6,2.93-.28-3.19-7.26-5.15-9.74-6.19A91.79,91.79,0,0,0,114.11,180Z" transform="translate(-14.56 -30.4)" fill="#6e8deb"/><path d="M112.51,194.44a31.45,31.45,0,0,0-8.24,3.06c9-2.31,18.24-4.64,27.58-4.41a105,105,0,0,1,11.33,1.13l8.67,1.19a70.41,70.41,0,0,1,7.89,1.39c1.83.47,4.62,2.23,6.39,1.89-.81-3.09-8-3.87-10.63-4.48A92.35,92.35,0,0,0,141,192,91.07,91.07,0,0,0,112.51,194.44Z" transform="translate(-14.56 -30.4)" fill="#6e8deb"/><path d="M279.23,202.62a31.35,31.35,0,0,1,7.54,4.51c-8.48-3.92-17.09-7.89-26.32-9.36a102.47,102.47,0,0,0-11.34-1l-8.75-.41a68.86,68.86,0,0,0-8-.08c-1.88.13-5,1.36-6.63.7,1.36-2.9,8.59-2.35,11.27-2.47a91.91,91.91,0,0,1,42.24,8.07Z" transform="translate(-14.56 -30.4)" fill="#6e8deb"/><path d="M278.19,173.13a31.32,31.32,0,0,1,8.63,1.65c-9.31-.78-18.76-1.55-27.93.23a102.16,102.16,0,0,0-11,3l-8.36,2.62A69.42,69.42,0,0,0,232,183.3c-1.72.77-4.18,3-6,2.93.29-3.19,7.26-5.15,9.74-6.19a92.56,92.56,0,0,1,13.95-4.59A91.42,91.42,0,0,1,278.19,173.13Z" transform="translate(-14.56 -30.4)" fill="#6e8deb"/><path d="M279.8,187.63a30.57,30.57,0,0,1,8.23,3.06c-9-2.32-18.24-4.64-27.58-4.41a102.31,102.31,0,0,0-11.32,1.12l-8.68,1.19a72.76,72.76,0,0,0-7.89,1.39c-1.83.47-4.62,2.23-6.39,1.89.81-3.09,8-3.87,10.63-4.48a92.42,92.42,0,0,1,14.52-2.21A91.34,91.34,0,0,1,279.8,187.63Z" transform="translate(-14.56 -30.4)" fill="#6e8deb"/></svg>