<svg id="_x33_0" enable-background="new 0 0 64 64" height="512" viewBox="0 0 64 64" width="512" xmlns="http://www.w3.org/2000/svg"><g><g><path d="m28.896 21.334c.184-.296.394-.574.643-.824 1.499-1.498 5.959-.439 5.959-.439s1.844.263 3.568.51c1.905.272 3.669 1.155 5.04 2.525l.05.05c1.203 1.203 2.022 2.734 2.355 4.402l.489 2.442.226-.226c.495-.496 1.168-.774 1.869-.774 1.138 0 2.148.728 2.508 1.807l.165.495c.154.463.232.946.232 1.433 0 1.426-.671 2.768-1.812 3.624l-2.188 1.641 3 6v1.352l5.316-4.833c4.247-3.862 6.684-9.369 6.684-15.109 0-11.26-9.16-20.42-20.419-20.42l-6.459.003c-.003 0-.005 0-.007 0-1.964 0-3.668-1.33-4.146-3.236l-.242-.971-1.729.435c-4.69 1.177-7.973 5.376-7.981 10.213-.005 2.821 1.091 5.474 3.084 7.47 1.093 1.094 2.387 1.908 3.795 2.43z" fill="#f0bc5e"/></g><g><path d="m37.436 28.664c-.44.22-.932.336-1.423.336-1.371 0-2.583-.874-3.017-2.173l-.047-.142-1.898.629.048.144c.706 2.119 2.681 3.542 4.914 3.542.801 0 1.602-.189 2.317-.547l1.117-.559-.895-1.789z"/><path d="m58.967 55.207-4.361-2.379c-1.608-.877-2.606-2.559-2.606-4.39v-4.674l-2.732-5.465 1.521-1.141c1.384-1.038 2.211-2.692 2.211-4.423 0-.597-.096-1.185-.283-1.748l-.166-.497c-.497-1.489-1.886-2.49-3.456-2.49-.495 0-.975.098-1.418.285l-.185-.923c-.374-1.869-1.283-3.567-2.679-4.963-1.532-1.532-3.471-2.503-5.605-2.808l-3.479-.493c-.836-.198-5.097-1.097-6.897.705-1.182 1.18-1.832 2.965-1.832 5.026v2.232c0 1.087-.296 2.155-.854 3.087l-2.404 4.007 1.138 1.138c.847.847 1.948 1.412 3.121 1.619v1.088c0 1.103.897 2 2 2h2.971c-.133.77-.706 1.403-1.486 1.598l-.969.243c-.894.222-1.517 1.02-1.517 1.94 0 2.878 2.341 5.219 5.219 5.219 1.275 0 2.543-.178 3.768-.528l.013-.004v2.06c0 1.144-.636 2.172-1.658 2.683l-7.105 3.553c-1.997.998-3.237 3.005-3.237 5.236v1h37v-1c0-2.834-1.545-5.437-4.033-6.793zm1.141 5.793h-10.216c1.16-1.261 2.803-2 4.58-2h1.057c1.776 0 3.419.739 4.579 2zm-22.67-14.451c-1.047.299-2.129.451-3.219.451-1.774 0-3.219-1.444-3.218-3.219l.969-.243c1.784-.445 3.03-2.041 3.03-3.88v-1.658h-5v-3h-1c-1.008 0-1.994-.409-2.707-1.121l-.034-.034 1.602-2.668c.746-1.243 1.14-2.666 1.14-4.116v-2.232c0-.884.162-2.528 1.246-3.611.749-.75 3.438-.546 5.11-.156l3.568.51c1.704.243 3.251 1.019 4.524 2.292 1.065 1.065 1.785 2.411 2.082 3.891l.854 4.274 1.547-1.547c.311-.311.724-.482 1.163-.482.708 0 1.335.452 1.559 1.123l.166.497c.119.359.18.734.18 1.115 0 1.105-.527 2.161-1.411 2.824l-2.856 2.142 3.267 6.535v4.202c0 1.279.348 2.506.976 3.567l-2.14 1.223c-2.029 1.159-4.337 1.772-6.674 1.772-1.242 0-2.378-.688-2.967-1.754.514-.793.805-1.728.805-2.718v-2.631l3.274-.936-.549-1.923zm-7.307 12.004 7.105-3.553c.183-.092.355-.198.523-.309.993 1.414 2.625 2.309 4.403 2.309 2.685 0 5.335-.704 7.666-2.036l2.43-1.389c.417.385.878.729 1.39 1.008l4.361 2.379c.476.26.898.586 1.273.956-1.138-.583-2.412-.918-3.754-.918h-1.057c-2.923 0-5.555 1.525-7.04 4h-19.301c.279-1.051.994-1.944 2.001-2.447z"/><path d="m3 33c0-2.757 2.243-5 5-5 1.654 0 3 1.346 3 3s-1.346 3-3 3h-1v2h1c2.757 0 5-2.243 5-5s-2.243-5-5-5c-3.859 0-7 3.14-7 7s3.141 7 7 7h16v-2h-16c-2.757 0-5-2.243-5-5z"/><path d="m7 47c0 2.757 2.243 5 5 5 1.654 0 3-1.346 3-3s-1.346-3-3-3h-1v2h1c.552 0 1 .449 1 1s-.448 1-1 1c-1.654 0-3-1.346-3-3s1.346-3 3-3h12v-2h-12c-2.757 0-5 2.243-5 5z"/></g></g></svg>