<svg enable-background="new 0 0 256 256" height="512" viewBox="0 0 256 256" width="512" xmlns="http://www.w3.org/2000/svg"><g id="Layer_1"><g><g><path d="m245.462 10.54v47.1c-17.23 22.89-29.64 49.16-36.65 77.17-9.795 39.112-34.816 64.209-74 74-28.01 7.01-54.28 19.42-77.17 36.65h-47.1v-47.1c17.23-22.89 29.64-49.16 36.65-77.17 9.442-37.79 33.546-63.892 74-74 28.01-7.01 54.28-19.42 77.17-36.65h47.1z" fill="#feb69f"/></g><g><path d="m171.64 171.637c-38.025 38.025-107.388 20.113-107.388 20.113s-17.912-69.363 20.113-107.388 107.387-20.112 107.387-20.112 17.913 69.363-20.112 107.387z" fill="#fc5d3d"/></g><g><g><path d="m52.322 236.933c-.813-1.116-.569-2.679.547-3.493 16.349-11.923 34.281-21.602 53.3-28.767 1.29-.486 2.734.166 3.221 1.458s-.166 2.734-1.458 3.221c-18.597 7.007-36.132 16.47-52.116 28.128-1.116.812-2.679.569-3.494-.547z" fill="#fae0e1"/></g><g><path d="m206.173 109.276c-1.292-.487-1.944-1.93-1.456-3.222 7.161-18.977 16.826-36.872 28.726-53.188.814-1.116 2.378-1.36 3.493-.547 1.116.814 1.36 2.377.547 3.493-11.635 15.953-21.085 33.451-28.088 52.008-.488 1.293-1.932 1.943-3.222 1.456z" fill="#fae0e1"/></g><g><path d="m147.417 49.575c-.492-1.29.155-2.734 1.446-3.226 18.301-6.974 35.57-16.337 51.327-27.83 1.115-.812 2.679-.568 3.493.547.813 1.116.569 2.679-.547 3.493-16.116 11.753-33.777 21.33-52.493 28.461-1.285.492-2.733-.15-3.226-1.445z" fill="#fae0e1"/></g><g><path d="m19.069 203.68c-1.116-.814-1.36-2.377-.547-3.493.972-1.333 1.928-2.675 2.869-4.027.788-1.133 2.346-1.414 3.479-.625 1.134.788 1.414 2.346.625 3.479-.961 1.383-1.939 2.756-2.933 4.119-.815 1.118-2.38 1.359-3.493.547zm8.565-12.313c-1.168-.737-1.518-2.281-.781-3.448 7.886-12.503 14.546-25.907 19.795-39.84.486-1.292 1.93-1.945 3.221-1.458 1.292.487 1.945 1.929 1.458 3.221-5.368 14.248-12.18 27.957-20.245 40.744-.737 1.169-2.282 1.517-3.448.781z" fill="#fae0e1"/></g><g><path d="m103.432 185.727c-11.848 0-21.984-1.442-28.402-2.652-1.013-.191-1.806-.985-1.994-1.999-1.897-10.184-5.534-36.469 1.646-60.539.395-1.323 1.784-2.076 3.11-1.681 1.323.395 2.076 1.787 1.681 3.11-6.504 21.804-3.696 45.686-1.826 56.502 6.226 1.094 15.314 2.258 25.784 2.258 17.384 0 41.498-3.392 57.657-19.551 25.677-25.678 19.477-71.671 16.965-85.156-.253-1.357.643-2.663 2-2.916 1.357-.254 2.663.642 2.916 2 2.625 14.092 9.06 62.202-18.345 89.607-17.37 17.371-42.864 21.017-61.192 21.017z" fill="#ffcbc3"/></g><path d="m138.482 193.54c13.94-4.15 25.69-10.92 34.93-20.13 15.971-16.011 22.995-37.875 24.65-60.53.103-1.391-.938-2.577-2.31-2.68-1.37-.09-2.57.95-2.67 2.31-1.8 24.47-9.6 43.77-23.21 57.36-22.439 22.485-58.455 26.241-89.947 22.16 17.984-3.692 48.035-13.396 73.397-38.71 25.306-25.355 35.012-55.396 38.707-73.382.492 3.788.934 8.151 1.193 12.902.07 1.37 1.23 2.44 2.63 2.36 1.38-.07 2.44-1.25 2.36-2.63-.88-16.14-3.72-27.67-4.04-28.95-.263-1.009-.921-1.487-1.83-1.8-24.299-6.143-78.408-10.471-109.75 20.77-18.614 18.676-25.04 45.199-25.06 71.69.01 20.37 3.85 36.31 4.29 38.06.204.837.93 1.673 1.942 1.863 21.339 5.308 51.347 6.281 74.718-.663zm-36.439-86.651c-.98-.89-2.64-.82-3.53.16-22.231 24.389-31.051 52.09-34.532 69.042-.785-6.035-1.448-13.561-1.448-21.812-.01-20.34 4.08-48.68 23.6-68.15 22.438-22.485 58.46-26.244 89.961-22.158-15.495 3.183-39.996 10.839-62.751 29.138-1.042.841-1.262 2.428-.38 3.52.83 1.03 2.47 1.21 3.51.38h.01c19.874-16.021 44.983-26.144 68.498-29.523l-117.498 117.498c2.003-14.077 9.235-46.681 34.719-74.564.938-1.022.848-2.604-.159-3.531zm86.483-35.877c-2.12 14.95-10.016 50.077-38.743 78.768-21.34 21.352-50.742 34.762-78.754 38.729z"/><path d="m195.982 100.199h-.02c-1.37 0-2.49 1.12-2.5 2.49-.01 1.38 1.11 2.5 2.49 2.51h.01c1.37 0 2.49-1.11 2.5-2.48.02-1.34-1.061-2.498-2.48-2.52z"/><path d="m109.082 103.44c1-.94 1.05-2.53.11-3.53-.91-.97-2.55-1.03-3.52-.12 0 0-.01 0-.01.01-1.01.94-1.06 2.53-.11 3.53.955 1.015 2.547 1.05 3.53.11z"/><path d="m9.039 200.357c1.101.828 2.669.611 3.501-.494 17.436-23.164 29.911-49.429 37.078-78.067 9.575-38.32 33.86-62.605 72.182-72.181 28.637-7.167 54.902-19.642 78.066-37.078 1.103-.831 1.324-2.398.494-3.501-.832-1.104-2.399-1.324-3.501-.494-22.627 17.032-48.289 29.219-76.272 36.222-40.253 10.058-65.762 35.567-75.819 75.818-7.003 27.985-19.19 53.647-36.222 76.273-.831 1.104-.61 2.672.493 3.502z"/><path d="m246.962 55.639c-1.07-.8-2.68-.57-3.49.49 0 0-.01 0-.01.01-17.94 23.831-30.192 50.565-37.08 78.06-9.66 38.27-33.94 62.55-72.18 72.19-10.93 2.73-21.7 6.32-32.02 10.66-1.27.53-1.87 2-1.34 3.27.552 1.316 2.078 1.858 3.27 1.34 10.07-4.24 20.61-7.75 31.31-10.43 19.86-4.92 36.41-13.89 49.17-26.66 12.75-12.76 21.71-29.3 26.65-49.15 7-27.98 19.18-53.65 36.22-76.28.82-1.099.601-2.67-.5-3.5z"/><path d="m92.942 221.179c-1.235.597-1.773 2.059-1.18 3.33.608 1.29 2.176 1.774 3.33 1.18 1.196-.55 1.801-2.001 1.19-3.33-.58-1.2-2.13-1.759-3.34-1.18z"/><path d="m59.142 247.46c8.53-6.42 17.66-12.25 27.13-17.31 1.186-.623 1.695-2.114 1.03-3.38-.665-1.24-2.184-1.661-3.38-1.03-9.71 5.19-19.05 11.15-27.78 17.72-1.1.83-1.33 2.4-.5 3.5.872 1.163 2.473 1.289 3.5.5z"/><path d="m189.692 215.15-8.27-8.27c-.95-.95-2.6-.95-3.54 0-.981.981-.965 2.566 0 3.53l6.5 6.51-6.5 6.5c-.964.984-.999 2.691 0 3.69l6.5 6.51-6.5 6.5c-.97.98-.97 2.56 0 3.54.928.929 2.501 1.018 3.54 0l8.27-8.27c.991-1.013.956-2.583 0-3.54l-6.59-6.58 6.59-6.59c.98-.981.968-2.562 0-3.53z"/><path d="m215.182 186.34 6.58-6.58 6.59 6.58c.965.965 2.549.981 3.53 0l8.27-8.27c.946-.926 1.029-2.511 0-3.54-.94-.94-2.59-.94-3.53 0l-6.5 6.51-6.51-6.51c-.952-.952-2.681-1.009-3.69 0l-6.51 6.51-6.5-6.51c-.95-.94-2.59-.94-3.54 0-1.008 1.03-.94 2.6 0 3.54l8.28 8.27c.94.95 2.59.95 3.53 0z"/><path d="m78.122 28.889-6.51-6.51 6.51-6.5c.97-.98.97-2.56 0-3.54-.94-.94-2.59-.94-3.53 0l-8.28 8.27c-.97.98-.97 2.56 0 3.54l6.59 6.58-6.59 6.59c-.97.97-.97 2.56 0 3.53l8.28 8.27c.988 1.009 2.584.967 3.53 0 .97-.97.97-2.56 0-3.53l-6.51-6.51 6.51-6.5c1.026-1.046.944-2.746 0-3.69z"/><path d="m19.382 81.469 6.5-6.51 6.51 6.51c.953.953 2.675 1.015 3.69 0l6.51-6.51 6.5 6.51c.95.94 2.59.94 3.54 0 .97-.98.97-2.56 0-3.54l-8.28-8.27c-.94-.95-2.59-.95-3.53 0l-6.58 6.58-6.59-6.58c-.94-.95-2.59-.95-3.53 0l-8.27 8.27c-2.358 2.311 1.187 5.884 3.53 3.54z"/></g></g></g></svg>